/* XPM */
static char *_729293d61de4bcebfb2b35aa4c38134926tZhT4etPgSTrI[] = {
/* columns rows colors chars-per-pixel */
"50 50 256 2 ",
"   c #8C52FF",
".  c #E7F5E8",
"X  c #FFA394",
"o  c #F0F9F0",
"O  c #8B50FF",
"+  c #9662FD",
"@  c #B08EF9",
"#  c #8B51FF",
"$  c #8C51FF",
"%  c #9663FD",
"&  c #F4FAF4",
"*  c #8B4FFF",
"=  c #D0EBD2",
"-  c #FFAB9C",
";  c #FFA190",
":  c #8D54FE",
">  c #FF9583",
",  c #FF9F8E",
"<  c #9464FA",
"1  c #9763FE",
"2  c #D7EED8",
"3  c #EAF5EB",
"4  c #FDFFFC",
"5  c #FFA292",
"6  c #E8F4E8",
"7  c #FF9A89",
"8  c #DFE6EB",
"9  c #9A73F5",
"0  c #EBF6EC",
"q  c #D8EFD9",
"w  c #9566FA",
"e  c #FFAD9F",
"r  c #C1AEF4",
"t  c #FFA99A",
"y  c #FF9887",
"u  c #8D56FE",
"i  c #905AFD",
"p  c #FD9E8B",
"a  c #9767FB",
"s  c #F2F9F2",
"d  c #DFF1E1",
"f  c #B18EF9",
"g  c #B28FFA",
"h  c #FBFEFB",
"j  c #C4B0F5",
"k  c #D8E1E5",
"l  c #F4A48F",
"z  c #FF917F",
"x  c #FD937F",
"c  c #FD907D",
"v  c #FF9382",
"b  c #FEA693",
"n  c #FDAB9B",
"m  c #D6E2E1",
"M  c #E3F4E4",
"N  c #8F58FE",
"B  c #ECF9EB",
"V  c #D3E5DB",
"C  c #DAE3E7",
"Z  c #A07FF1",
"A  c #9662FE",
"S  c #B1A2E9",
"D  c #F4A692",
"F  c #C0B7EB",
"G  c #9868FB",
"H  c #FF9180",
"J  c #FE9D8B",
"K  c #F3D5C6",
"L  c #9F7AF5",
"P  c #FFA798",
"I  c #E6F1E2",
"U  c #FDB165",
"Y  c #E0EEE6",
"T  c #DCE3E9",
"R  c #F6FBF6",
"E  c #E5ECDB",
"W  c #F9AD99",
"Q  c #F99E89",
"!  c #9C70F9",
"~  c #A88DF1",
"^  c #CDE9CF",
"/  c #8F5CFB",
"(  c #AA98E8",
")  c #E9F2E6",
"_  c #AB90F1",
"`  c #925DFD",
"'  c #EEF8EF",
"]  c #EAC3AF",
"[  c #DBEFDC",
"{  c #E1EBE7",
"}  c #9462FB",
"|  c #C0B3EF",
" . c #DFD4C1",
".. c #FCAA63",
"X. c #F5A18E",
"o. c #D4EED5",
"O. c #E3EEE8",
"+. c #ECF4E7",
"@. c #996EF7",
"#. c #D4EAD7",
"$. c #FCA797",
"%. c #E1F3E2",
"&. c #F4C4B4",
"*. c #FFB669",
"=. c #F89B86",
"-. c #FBA37A",
";. c #C8D2DD",
":. c #F4B5A3",
">. c #ECD9C9",
",. c #925EFC",
"<. c #EAEDDD",
"1. c #F2BEAC",
"2. c #F69986",
"3. c #BCBCE1",
"4. c #C7CAE3",
"5. c #F3FBF2",
"6. c #DBECDF",
"7. c #8C53FE",
"8. c #C5B3F5",
"9. c #AA93ED",
"0. c #C9E2D1",
"q. c #915FF9",
"w. c #BEADF2",
"e. c #9468F4",
"r. c #FFA698",
"t. c #C1B6EE",
"y. c #E9C6B2",
"u. c #F4A995",
"i. c #CBE5D1",
"p. c #E5D0BC",
"a. c #8161D9",
"s. c #8A56F7",
"d. c #FF9786",
"f. c #8858F0",
"g. c #E0EAD9",
"h. c #C7C6E7",
"j. c #F5CBBC",
"k. c #FDA987",
"l. c #976AF8",
"z. c #EBF3E8",
"x. c #F7CEC1",
"c. c #FF8D7B",
"v. c #F6C7B9",
"b. c #E6F1EA",
"n. c #CFD1E9",
"m. c #9F74FA",
"M. c #F89380",
"N. c #EB8F7E",
"B. c #FCA492",
"V. c #B5A1EF",
"C. c #C5C1EA",
"Z. c #F1F8F2",
"A. c #A488EF",
"S. c #CDC9EC",
"D. c #F8F1E9",
"F. c #F7FDF7",
"G. c #B8BDD7",
"H. c #C5B9EF",
"J. c #8C53FF",
"K. c #FCA775",
"L. c #FEBD7C",
"P. c #FFCA99",
"I. c #FFC082",
"U. c #FB9987",
"Y. c #B8ADE9",
"T. c #976CF6",
"R. c #D8E7E1",
"E. c #A68CEE",
"W. c #CEDDD9",
"Q. c #AA8FF2",
"!. c #C9D8D5",
"~. c #B7A8ED",
"^. c #AC9CE8",
"/. c #EBE3D3",
"(. c #D9F1D9",
"). c #FBA08C",
"_. c #B8B2E4",
"`. c #D0E2D9",
"'. c #EB988A",
"]. c #C0C4DB",
"[. c #DCE9E4",
"{. c #D3DCE2",
"}. c #CBD2E3",
"|. c #C0BBE8",
" X c #F0B8A4",
".X c #D4D9E8",
"XX c #B2A7E6",
"oX c #D9E8E0",
"OX c #A791EB",
"+X c #B290FA",
"@X c #BBC7D6",
"#X c #9E7DF0",
"$X c #A484F2",
"%X c #CEE6D3",
"&X c #9E83EB",
"*X c #AFAADF",
"=X c #FEA891",
"-X c #E7CAB6",
";X c #8E57FE",
":X c #6B7797",
">X c #8B7BCC",
",X c #8B52FE",
"<X c #8184B0",
"1X c #7A70BB",
"2X c #845BE6",
"3X c #F3D1C3",
"4X c #E7CBB7",
"5X c #B8A8EE",
"6X c #C4D0D9",
"7X c #B99BFA",
"8X c #DFD8C2",
"9X c #DCEDD9",
"0X c #E3DCC9",
"qX c #E6D8C6",
"wX c #8B54FB",
"eX c #E2E3D2",
"rX c #EFB29E",
"tX c #EBCEBB",
"yX c #FA8C7B",
"uX c #FD9382",
"iX c #ED897A",
"pX c #FDB182",
"aX c #F6D6CB",
"sX c #D9DAEF",
"dX c #E9E8DB",
"fX c #F4E4D9",
"gX c #FBB2A3",
"hX c #F8FEF6",
"jX c #DADEEA",
"kX c #FFC184",
"lX c #F4DED2",
"zX c #FDB27D",
"xX c #8662E2",
"cX c #CBC0B1",
"vX c #EAF2E4",
"bX c #F4A380",
"nX c #F9A35E",
"mX c #F0A05E",
"MX c #B1AFDD",
"NX c #FEBE80",
"BX c #F5A274",
"VX c #DF998E",
"CX c #E6F0E0",
"ZX c #BCB3E8",
"AX c #A98AF4",
"SX c #FB9B88",
"DX c #DAEBDF",
"FX c #E49384",
"GX c #D2D6E7",
"HX c #D9DEEA",
"JX c #C6CEDF",
"KX c #9777DB",
"LX c #ECAAFF",
"PX c #CE52E8",
"IX c #8CF594",
"UX c #E7A3F0",
/* pixels */
"m.A 1 1 % % % % % % % % % % % % % % % % % % % % % % % % % % % % % % % % A e.<X>X% % % % % % 1 1 A 7X",
"A O # # # # # # # # # # # # # # # # # # # # # # # # # # # # # # # # # # $ f.:X1X,X# # # # # # # O g ",
"1 #                                                                       2Xa.s.                # g ",
"% #                                 $ $ O O O * * * * * * * O O O O $ $ s.a.wX                  # g ",
"% #                   $ O O O O 7.u / < l.9 L $X~ ~ _ _ ~ A.Z L 9 T.< / xXf.O * O $             # f ",
"+ #           $ O # : q.@.Z 9.~.F h.n.{.C [.b.3 ' ' ' ' ' 3 b.O.{ 8 jX].G.F S E.9 q.7.$         # @ ",
"+ #         $ / #XS 3.;.`.#.[ M B B B o ' R h h h h h h h h h h h 4 R W.Z.hX5.3 R.6X*Xe.$       # @ ",
"+ #       # 9 @X%X2 2 2 o.2 [ %.. 0 3 3 0 ' & s & & & & & s ' Z.o & m { F.R s 0 d o.i.&XO       # @ ",
"+ #       O #X0.= = ^ ^ ^ = 2 d . 3 . . . . 3 6 z.) ) ) z.6 M M M V !.6 6 6 d [ 2 2 S u         # @ ",
"+ $         : 9.0.o.= = = = = 2 g.E g.eX0XqXp.-Xy.] ] y.4Xp. .8X .cX .dX) 0 ' o ' H.i $         # @ ",
"+ $           : ( V 2 d E >.] rXl l l X.l u.l D u.D l D X.Q =.U.N.N.7 X gXv.D.F.S.} #           # @ ",
"+ $           $ : ( i.9X:.M.c c x v z c > y > 7 7 d.v > > z H c iXc v v > $.D.sX@.O             # @ ",
"+ $             $ : ( #.tX=.x x x z H H > d.> d.y v z H z c.c.yXuX> 7 , W fX8 L O               # @ ",
"+ $               $ u S Y K B.; J 7 7 , X r.X X X 5 ; , ; , M.2.5 ; X n lXY Q.#                 # @ ",
"+ $                 $ ;X5Xb.K $.J y > ; t - - t e e t k.pXzXBXp P P n aX3 V.:                   # @ ",
"+ $                   $ N w.6 K t J x , 5 P t P - e k.U kXP.L.-.t n x.+.t.i $                   # @ ",
"+ $                     # i | 6 3Xb , , ; t t - - n ..*.I.P.NXK.$.&.+.S.} #                     # @ ",
"+ $                       # i t.6 x.b p , - - t r.=X..*.L.I.U -.:.<..X! O                       # @ ",
"+ $                         # ` t.) j.; y ; X ; X b ..U *.U K.W /.C Z O                         # @ ",
"+ $                           # ` F I v.p 7 J , X P bXmXnX-.W >.Y _ $                           # @ ",
"+ $                             # ,.|.I &.p p p X B.VXX.b n K b.V.:                             # @ ",
"+ $                               O } C.CX&.).Q ).'.'., B.j.6 | N $                             # @ ",
"+ $                                 O < h.CX1.Q =.FXU.SX1.vXC.` #                               # @ ",
"+ $                                   O l.4.E  X2.2.Q :.<.n.G O                                 # @ ",
"+ $                                     O T.}.E  XQ W /.k m.O                                   # @ ",
"+ $                                       O @.}.<.1.>.[.AX#                                     # @ ",
"+ $                                         O 9 GXI 6.^.J.                                      # @ ",
"+ $                                           O L [.3.N $                                       # @ ",
"+ $                                           # a m XXO                                         # @ ",
"+ $                                           # G m Y.#                                         # @ ",
"+ $                                           # G m |                                           # @ ",
"+ $                                           # w k j #                                         # @ ",
"+ $                                           # w k w.O                                         # @ ",
"+ $                                           # w k r #                                         # @ ",
"+ $                                           # < k r O                                         # @ ",
"+ $                                           # w k j #                                         # @ ",
"+ $                                           # w k 8.#                                         # @ ",
"+ $                                           # w k 8.#                                         # @ ",
"+ $                                           # w C r O                                         # @ ",
"+ $                                           # w T r #                                         # @ ",
"+ $                                           # G 8 j #                                         # @ ",
"+ $                                           # G 8 j #                                         # @ ",
"+ $                                           # G 8 j #                                         # @ ",
"+ #                                           # a C r #                                         # @ ",
"+ #                                           O G 8 r O # $                                     # @ ",
"+ #                                 $ O O O J.u ! T H.a < ,.i : # * O                           # @ ",
"% #                             O   ,.9 A.^.MXG.;.d { T HXGX4.|.~.Q.! N                         # f ",
"% #                             9 Y.;.V #.= = (.%.0 ' o 5.o B . M d R.ZXi $                     # g ",
"1 #                           u _.q (.q 2 2 d 6 0 s R & & o . d 6.W.].E.u                       # g ",
"1 #                             < OX_.4.!.W.V oXDX6.oXV {.JX3.XXOX9 i O                         # +X"
};
