/* XPM */
static char *_6a0eda778674753a516b8af9b4869b3ncx8MsaYPQk572fN[] = {
/* columns rows colors chars-per-pixel */
"50 50 256 2 ",
"   c #4F4F4A",
".  c #FFF3B2",
"X  c #FFB1F2",
"o  c #FFEEB7",
"O  c #4F4850",
"+  c #FFF7B2",
"@  c #D1C88E",
"#  c #D18BCA",
"$  c #FFAEF5",
"%  c #FFAEF9",
"&  c #FFF1B4",
"*  c #FFB3F0",
"=  c #FFB4EF",
"-  c #FFEFB5",
";  c #FFB0F2",
":  c #FFECB8",
">  c #FFE8BE",
",  c #FFE5BE",
"<  c #FFE2C1",
"1  c #FFBBE9",
"2  c #FFBCE7",
"3  c #FFEABA",
"4  c #FFBEE6",
"5  c #FFB9EA",
"6  c #FFB7EC",
"7  c #FFE9BB",
"8  c #FFE4C0",
"9  c #FFB6ED",
"0  c #FFE1C3",
"q  c #FFC5DF",
"w  c #FFDEC7",
"e  c #FFD6CF",
"r  c #FFDFC4",
"t  c #FFC6DE",
"y  c #FFC7DD",
"u  c #FFCDD8",
"i  c #FFC1E3",
"p  c #FFC3E1",
"a  c #FFCBD8",
"s  c #FFD2D1",
"d  c #FFDAC8",
"f  c #FFD4D3",
"g  c #FFBFE2",
"h  c #FFC9DA",
"j  c #E79EBD",
"k  c #F9D8BA",
"l  c #E58EC8",
"z  c #FFDDC8",
"x  c #4A3C47",
"c  c #FBCCC9",
"v  c #FFDACB",
"b  c #E49AB8",
"n  c #FFC0E5",
"m  c #FFD7CD",
"M  c #FFE0C5",
"N  c #FFD5D0",
"B  c #4A4043",
"V  c #FFDBCB",
"C  c #F9CCC3",
"Z  c #FAB5DB",
"A  c #FECCD1",
"S  c #4A453F",
"D  c #EEB2A2",
"F  c #F3B4C1",
"G  c #4C3546",
"H  c #FFD0D5",
"J  c #E490C1",
"K  c #F3C793",
"L  c #E6A0B7",
"P  c #F9AFE0",
"I  c #F6B5CF",
"U  c #F8C3C6",
"Y  c #FFCBDB",
"T  c #FAC6CB",
"R  c #F4C3A4",
"E  c #FFEFB8",
"W  c #E699C1",
"Q  c #F0B99B",
"!  c #F9BECB",
"~  c #FFE1C6",
"^  c #F3C294",
"/  c #FED8C7",
"(  c #E387CA",
")  c #E693C6",
"_  c #F8B9D9",
"`  c #DC7EC3",
"'  c #EFB69E",
"]  c #FFB6EF",
"[  c #FDD6C3",
"{  c #F9D4BE",
"}  c #493F3B",
"|  c #F3BEA2",
" . c #F7BEB0",
".. c #EEBA88",
"X. c #F6C2AE",
"o. c #FEC4D9",
"O. c #FDCECA",
"+. c #FAC0CF",
"@. c #F8ACE6",
"#. c #FBD0C3",
"$. c #F1C38C",
"%. c #FFD8CD",
"&. c #F3A6DA",
"*. c #ECABBD",
"=. c #F9E6AC",
"-. c #EFB0A5",
";. c #F0B2AC",
":. c #EBAC9C",
">. c #E89DB4",
",. c #E593C0",
"<. c #DF8BB9",
"1. c #FFCFD6",
"2. c #F1B9A4",
"3. c #F1BD99",
"4. c #4A3940",
"5. c #FAE2B3",
"6. c #E68CD1",
"7. c #FED2CA",
"8. c #F5CF92",
"9. c #ECA4C3",
"0. c #EFAEAA",
"q. c #ECAFA5",
"w. c #FDC5D1",
"e. c #F1B5B7",
"r. c #EBB192",
"t. c #F9D4B2",
"y. c #E497BC",
"u. c #F2C788",
"i. c #F9C8BA",
"p. c #F1C094",
"a. c #F6CA9F",
"s. c #FEC2DC",
"d. c #4C4636",
"f. c #FEB7E5",
"g. c #FDDAC1",
"h. c #EBB589",
"j. c #F8BAD0",
"k. c #F19BE2",
"l. c #DB77C9",
"z. c #FEC8D7",
"x. c #DE83BF",
"c. c #F5B0C7",
"v. c #FCBADA",
"b. c #F5CEBA",
"n. c #FEE2BC",
"m. c #3E2538",
"M. c #FCBED8",
"N. c #F2C7B9",
"B. c #F5CBA7",
"V. c #EBAAA6",
"C. c #E7A59D",
"Z. c #FFECBB",
"A. c #F1B7AD",
"S. c #FDCACF",
"D. c #FEB1ED",
"F. c #E6C9B1",
"G. c #F4B8C2",
"H. c #E6D6A4",
"J. c #FFBBE6",
"K. c #F3BBAB",
"L. c #F8CEAF",
"P. c #F9C3BD",
"I. c #4A473D",
"U. c #F6C1B7",
"Y. c #FACFBB",
"T. c #EAA2D7",
"R. c #FEE6B9",
"E. c #E584D6",
"W. c #E6C2B8",
"Q. c #F2BAB8",
"!. c #E6B5C4",
"~. c #FABDD4",
"^. c #F3A0E0",
"/. c #E9A5B2",
"(. c #FAA9ED",
"). c #F5AFD6",
"_. c #E38AC3",
"`. c #4A4344",
"'. c #504951",
"]. c #E9AEC7",
"[. c #EFA8CA",
"{. c #ED9DD2",
"}. c #F7C2D2",
"|. c #E090B3",
" X c #F3BEC3",
".X c #E696C7",
"XX c #DA7CB7",
"oX c #DB84B7",
"OX c #483B40",
"+X c #E192BB",
"@X c #E8A0A9",
"#X c #4C423A",
"$X c #E9A992",
"%X c #F1C2A4",
"&X c #F0C27F",
"*X c #ECABB2",
"=X c #EFC478",
"-X c #E6CFAA",
";X c #F5C8AB",
":X c #F8BCC1",
">X c #EDB398",
",X c #EEB0B9",
"<X c #F9DDA7",
"1X c #F6C6A9",
"2X c #E398AB",
"3X c #E6A7D2",
"4X c #E79EDC",
"5X c #E688D4",
"6X c #DF82CB",
"7X c #F5ABDB",
"8X c #F7C7C2",
"9X c #D977BF",
"0X c #FEEBB3",
"qX c #FCEAAC",
"wX c #ECA1CE",
"eX c #F2ACD3",
"rX c #452E3E",
"tX c #E7A4B7",
"yX c #E295B8",
"uX c #E99FC8",
"iX c #F8D5A2",
"pX c #FDDDBC",
"aX c #EAAF8B",
"sX c #DE8AA9",
"dX c #EFBF79",
"fX c #FDB3EA",
"gX c #F9DCB4",
"hX c #EA91D6",
"jX c #E5BBB8",
"kX c #F3C1BF",
"lX c #DE8F95",
"zX c #F7C8B3",
"xX c #FFB5EB",
"cX c #E1AB8A",
"vX c #E7DCA0",
"bX c #545355",
"nX c #FEBDE1",
"mX c #DBAF81",
"MX c #D1C98F",
"NX c #F1D1B3",
"BX c #DE9291",
"VX c #FEAEEE",
"CX c #F6A3E6",
"ZX c #BB7DB5",
"AX c #D2CA8F",
"SX c #4B493D",
"DX c #BBB47F",
"FX c #BF6EB7",
"GX c #FFCDCF",
"HX c #D08AC9",
"JX c #AC58A5",
"KX c #C29994",
"LX c #D0C78F",
"PX c #D1C98E",
"IX c #AC6795",
"UX c #FFB1B7",
/* pixels */
"bX} SXI.I.I.I.I.S S S S S S S S S S `.`.`.`.`.`.B } B B B B B B B B x } } x x x x x x x x x x x rXbX",
"  DXvXvXH.H.H.H.H.-X-X-X-XF.F.F.F.F.W.W.W.W.W.jXjXmXjX!.!.!.!.!.].].].mXcX3X3X3X3XT.T.T.4X4X4X4XZXO ",
"  AX+ . & - E : Z.3 > > 8 < 0 M w z V v %.m N f 7.K GXu Y Y y y q o.X.^ p. .nX5 6 6 = = X X $ % # '.",
"  @ + . & - o : 3 7 > , n.< 0 r z z d v m e f s #.$.c a h h y t p P.dXU. .dX:X5 6 9 = * X ; $ % # '.",
"  @ + . & - o : 3 7 > , 8.<X0 r z z d v m { a.K u.=X$.K 1XT y t q p U $.$.! J.5 6 9 = * X ; $ % # '.",
"  @ + . & - o : 3 7 > n.=X8.0 r z z V [ a.=Xu.Y.Y.$.C i.&X&XR w.q p i | | 2 1 5 6 9 = * X ; $ % # O ",
"  @ + . & - o : 3 7 <X8.8.u.8.pXz z k u.a.K L.f O.$.A Y 1X^ R p.w.p i ! ! 2 1 5 6 9 = * X ; $ % # O ",
"  @ + . & - o : 3 7 iX=XiX8.&Xk w g.$.L.[ $.7.s O.p.A a T p.w.X.3.s.i g 4 2 1 5 6 9 = * X ; $ % # O ",
"  @ + . & - o : 3 7 > <X&Xu.pXr z K B.v L.K N f O.p.A a h 3.U t | K.i n 4 2 1 5 6 9 = * X ; $ % # O ",
"  @ + . & - o : 3 7 > , K iX0 r t.dXa.B.$.p.;X1XR ..R X.X...3. .| ..+.n 4 2 1 5 6 9 = * X ; $ % # O ",
"  @ + . & - o : 3 7 > , gXpX0 r K ^ a.a...^ 1X1XR ..%XX.X.3... . .Q K.n 4 2 1 5 6 9 = * X ; $ % # O ",
"  @ + . & - o : 3 7 > , 8 < 0 g.p.[ V / p.#.N f O.3.A a Y T Q t q +.' g 4 2 1 f.Z 9 = * X ; $ % # O ",
"  @ + =.<X- o : 3 7 > , 8 < 0 k p.d V [ 3.7.N s O.Q S.a Y w.' o.q s.' M.4 2 1 I ;.9 = * X ; $ % # O ",
"  @ + <XK - o : 3 7 > , 8 < 0 t.h.R %X3.h.| | | | h.2.2.2.2.aX2.A.A.r.~.4 2 J.;.aXZ = * X ; $ % # O ",
"  @ + =.$.0Xo : 3 7 > , 8 < 0 t...L.L.;Xh.zXi.i.X.r.U.P.P.U.r.:X:X:X>X~.4 v.-.-.F :.c.* X ; $ % # O ",
"  MXqX$.h.=.o : 3 7 > , 8 < 0 k 3.d V [ Q 7.N f O.' A u Y w.D o.q s.D M.4 v.-.0.F :.c.* X ; $ % # O ",
"  MX=.h...=.o : 3 7 > , 8 < 0 g.Q Y.d [ ' C s s c >XS.a a U D o.q ! -.g 4 2 J.0.$XZ = * X ; $ % # O ",
"  @ + qXqX- o : 3 7 > , 8 < 0 M R r.Q Q aX>X' ' >X$XD D D :.$X-.-.$XF n 4 2 1 I *X9 = * X ; $ % # O ",
"  @ + . & - o : 3 7 > , 8 < 0 r { r.zX#.| 2.C C P.:.P.T U -.e.+.G.:.M.n 4 2 1 f.Z 9 = * X ; $ % # O ",
"  @ + . & - o : 3 7 > , 8 < 0 r w X.2./ i.' N s c D S.u z.q.+.o.0.G.i g 4 2 1 5 6 9 = * X ; $ % # O ",
"  @ + . & - o : 3 3 > , 8 < 0 r z d 2.2.#.D C s c q.S.u U q.}.0.,Xp i g 4 2 1 5 6 9 = * X ; $ % # O ",
"  @ + . & - o : gX;XB., 8 < 0 r z d [ K.D :.K.f c q.A u ;.V.V.e.s.p i n 4 2 1 5 6 9 = * X ; $ % # O ",
"  @ + . & - o : %X' t., 8 < 0 r w X.i.v i.:.C.A.Q.C.Q.e.C.V.! t q s.j.c._ 2 1 5 6 9 = * D.; $ % # O ",
"  @ + . & - o o B.%X> , 8 < M M g.C.D v %.7.8XQ.;.0.;.e.+.z.y t q M.@X*.v.2 1 5 6 9 = D.9.@.$ % # O ",
"  @ + . & - o 5.%X' > , 8 < 0 { q.;.q.;.7.e N s s 1.1.u a h y t q s./.v.4 2 1 5 6 9 = D.>.@.$ % # O ",
"  @ + . & - o %XBX:., , 8 < 0 Y.C.A.q.V.#.e N s s 1.1.a a h y t q j.@XI 4 2 1 5 6 9 P [.>.VX$ % # O ",
"  @ + . & - o 5.;Xt.> , 8 < M M [ C.V./ %.e N s s H 1.a a h y t M.2XlXc.4 2 1 5 6 9 >.lX>.; $ % # O ",
"  @ + . & - o : Z.3 > , 8 < 0 r w A.U.v m e N O.*XG.S.u a h y t s.c.*.v.4 2 1 5 6 9 P j &.; $ % # O ",
"  @ + . & - o : 3 7 > , 8 < 0 r w [ / v m e e U @X*X@XG.a h y t q p i n 4 2 1 5 6 9 = * X ; $ % # O ",
"  @ + . & - o : 3 7 > , 8 < 0 r z z d v m N c e.,XH F /.a h y t q p i g 4 2 1 5 6 9 = * X ; $ % # O ",
"  @ + . & - o : 3 7 > , 8 < 0 r z z d v %.c 2XsXF H F *.a h y t q p i g 4 2 1 5 6 9 = * X ; $ % # O ",
"  @ + . & - o : 3 7 > , 8 < 0 r z z d v m 7.,X>.:X>.|.F a h y t q p i g 4 2 1 5 6 9 = * X ; $ % # O ",
"  @ + . & - o : 3 7 > , 8 < 0 r z z d v m e N s S.2XsX! a h y t q p i g 4 2 1 5 6 9 = * X ; $ % # O ",
"  @ + . & - o : 3 7 > , 8 < 0 r z z d v m e N s s A w.a a h y t q p i g 4 2 1 5 6 9 = * X ; $ % # O ",
"  @ + . & - o : 3 7 > , 8 < 0 r z z d v m e N s s 1.1.a a h y t q p i g 4 2 1 5 6 9 = * X ; $ % # O ",
"  @ + . & - o : 3 3 > > , < < M r z V v %.m N f s H 1.u a Y y y q p i n n 2 1 5 6 9 = * X ; $ % # O ",
"  @ + . & - o : 3 k b.b.b.b.C C 8X8X8XU U U U ! ! ! j.j.j.j.I I I I ).).).).7X7XP xX= * X ; $ % # O ",
"  @ + . & - o : b.2X/././.tXL sX>.tXL L |.|.j j |.<.j W <.<.W W W ,.oXJ .X) ) ) _.&.= * X ; $ % # O ",
"  @ + . & - o 5.2XQ.k { { { Q.yXC C C c j 9.T T 9.j +.+.9.,.~._ _ Z J wXZ P P P {.x.@.* X ; $ % # O ",
"  @ + . & - : *X|.L L >.>.b oX|.b b b yXXX+Xy.y.<.oX,.,.J XXJ ,.J J _.XX_.l l l l x.l D.X ; $ % # O ",
"  @ + . & - N.L n.R.n.n.< kXb / d / /  Xy.7.s s [.9.A z.z..XeXo.s.g nXl T.J.f.f.xXfXl k.X ; $ % # O ",
"  @ + . & gX|.U.k k { { { b *.#.C C C j j T T T 9.W +.~.~.uX) _ _ Z Z {.( P P @.@.@.^.` CXX $ % # O ",
"  @ + . 0XL <.b b b b b <.XXyXy.y.y.+XXX<.,.,.,.x.` J J J _.9X_._._._._.9X` ( ( ( ( ( ` 6X(.$ % # O ",
"  @ + . e.tXR.R.R., n.n.j F r g./ / U J O.7.s s [.uXA z.z.o.l eXs.g nXnX&.( f.f.fXfXD.D.6.6.$ % # O ",
"  @ + NXyX5.o : 3 7 > b.+Xg.0 r z w ].9.%.e N f [.uX1.a a Y wX{.q p i n J.( &.5 6 9 = * (.6Xk.% # O ",
"  PX0X<.oXL L j j j j x.` W W W W W 9Xx..X) ) ) ` ` ) l l l 6X9X6.6.6.6.6.l.l.5X5X5XE.E.E.l.l.(.# O ",
"  LX*.tXb.N.N.N.N.N.,Xx. XkX X X X].` F G.I I I ) l I ).).eXeX` {.7X&.&.&.&.l.hX^.^.^.k.k.k.5XE.HX'.",
"  KXb 0X. & E o Z.Z.*.*.> 8 < ~ ~ F W V %.%.e e [.uXH u a Y Y .X{.q p i n 4 k.5X5 6 ] = * X $ E.FX'.",
"`.IXNXqX=.=.=.5.5.NXoXb.gXk k { { +X*.#.#.C C c uX.XT }.}.}.}.wX6X_ _ _ _ Z 7Xl.T.P @.@.@.(.(.k.JX`.",
"OXm.d.d.d.d.d.d.d.OXrX#X#X#X#X#X} rX4.} } } } B rXrXOXOXOXOXOXG m.4.4.4.4.4.G m.rXG G G G G G G m.OX"
};
