/* XPM */
static char *c15d578661a3440c8c62b19fe7f3125fI7vqITWQSAtJAkeJ[] = {
/* columns rows colors chars-per-pixel */
"50 50 128 2 ",
"   c #FFD1D2",
".  c #FFDDC6",
"X  c #FFC1E2",
"o  c #FFE5BE",
"O  c #FFD2D1",
"+  c #FFE2C1",
"@  c #FFD4CF",
"#  c #FFBEE5",
"$  c #FFBCE6",
"%  c #FFCFD4",
"&  c #FFDFC4",
"*  c #FFE9BB",
"=  c #FFB9E9",
"-  c #FFDAC9",
";  c #FFCCD7",
":  c #FFB4EE",
">  c #FFD9CA",
",  c #FFECB8",
"<  c #FFCAD8",
"1  c #FFB7EB",
"2  c #FFC4DE",
"3  c #FFD7CC",
"4  c #FFC9DA",
"5  c #FFEFB5",
"6  c #FFF5AE",
"7  c #FFB1F1",
"8  c #FFAEF4",
"9  c #FFAAF7",
"0  c #FFE4C0",
"q  c #FFE7BD",
"w  c #FFCED5",
"e  c #FFE1C3",
"r  c #FFBFE3",
"t  c #FFBBE8",
"y  c #FFDCC8",
"u  c #FFC3E0",
"i  c #FFD6CE",
"p  c #FFEDB7",
"a  c #FFC7DC",
"s  c #FFC6DD",
"d  c #FFB6EC",
"f  c #FFEABA",
"g  c #FFF0B4",
"h  c #FFB3EF",
"j  c #FFF2B2",
"k  c #FFF3B0",
"l  c #FFB0F2",
"z  c #FFADF6",
"x  c #F9F3BD",
"c  c #F9B9F6",
"v  c #FAF4BE",
"b  c #FBF4BE",
"n  c #FABAF6",
"m  c #FBBAF7",
"M  c #FABAF7",
"N  c #FBF5BF",
"B  c #FFC0E3",
"V  c #FFD5CD",
"C  c #F5E0D5",
"Z  c #F5EACC",
"A  c #FFC7DB",
"S  c #F5C8EC",
"D  c #F5D2E3",
"F  c #F5DBDA",
"G  c #FFC2E0",
"H  c #F5E4D1",
"J  c #F5CCE8",
"K  c #F5D6DF",
"L  c #F5DFD6",
"P  c #F5E9CD",
"I  c #FFE7BC",
"U  c #F5D1E4",
"Y  c #F5E8CD",
"T  c #F5D0E4",
"R  c #F5DADB",
"E  c #F5E3D2",
"W  c #F5CBE9",
"Q  c #F5D5E0",
"!  c #FAB9F6",
"~  c #F5DED7",
"^  c #FFC5DD",
"/  c #F5E7CE",
"(  c #FBBBF7",
")  c #F5CFE5",
"_  c #F5D9DC",
"`  c #F5E2D3",
"'  c #FFE0C2",
"]  c #F5CAEA",
"[  c #FFEAB9",
"{  c #F5D4E1",
"}  c #FFDCC7",
"|  c #F5DDD8",
" . c #F5E6CF",
".. c #FFCDD5",
"X. c #F5D8DD",
"o. c #FFB5EC",
"O. c #F5E1D4",
"+. c #F5EBCB",
"@. c #F5C9EB",
"#. c #F5D3E2",
"$. c #FFBAE8",
"%. c #F5DCD9",
"&. c #FFE4BF",
"*. c #F5CEE7",
"=. c #F5E5D0",
"-. c #F5CDE7",
";. c #FFEDB6",
":. c #F5D7DE",
">. c #F5C7ED",
",. c #FFF0B3",
"<. c #F6ECCA",
"1. c #F6EECA",
"2. c #FFB2F0",
"3. c #FFF2B1",
"4. c #F7F1C8",
"5. c #F7EFC9",
"6. c #F5C7EE",
"7. c #FFF4B0",
"8. c #F6F2D2",
"9. c #F8F3C8",
"0. c #F6C6EF",
"q. c #FFAFF3",
"w. c #F6C5F1",
"e. c #F7C5F2",
"r. c #F6CEF6",
"t. c #F7C4F4",
"y. c #F8C4F5",
"u. c #FFACF6",
/* pixels */
"N 6 k j g 5 p , f * q o 0 + e & . y - > 3 i @ O   % w ; < 4 a s 2 u X B # $ t = 1 d : h 7 l 8 z 9 ( ",
"b 6 k j g 5 p , f * q o 0 + e & . y - > 3 i @ O   % w ; < 4 a s 2 u X r # $ t = 1 d : h 7 l 8 z 9 m ",
"v 6 k j g 5 p , f * q o 0 + e & . y - > 3 i @ O   % w ; < 4 a s 2 u X r # $ t = 1 d : h 7 l 8 z 9 M ",
"v 6 k j g 5 p , f * q o 0 + e & . y - > 3 i @ O   % w ; < 4 a s 2 u X r # $ t = 1 d : h 7 l 8 z 9 n ",
"v 6 k j g 5 p , f * q o 0 + e & . y - > 3 i @ O   % w ; < 4 a s 2 u X r # $ t = 1 d : h 7 l 8 z 9 ! ",
"x 6 k j g 5 p , f * q o 0 + e & . y - > 3 i @ O   % w ; < 4 a s 2 u X r # $ t = 1 d : h 7 l 8 z 9 c ",
"x 6 k j g 5 p , f * q o 0 + e & . y - > 3 i @ O   % w ; < 4 a s 2 u X r # $ t = 1 d : h 7 l 8 z 9 c ",
"x 6 k j g 5 p , f * q o 0 + e & . y - > 3 i @ O   % w ; < 4 a s 2 u X r # $ t = 1 d : h 7 l 8 z 9 c ",
"x 6 k j g 5 p , f * q o 0 + e & . y - > 3 i @ O   % w ; < 4 a s 2 u X r # $ t = 1 d : h 7 l 8 z 9 c ",
"x 6 k j g 5 p , f * q o 0 + e & . y - > 3 i @ O   % w ; < 4 a s 2 u X r # $ t = 1 d : h 7 l 8 z 9 c ",
"x 6 k j g 5 p , f * q o 0 + e & . y - > 3 i @ O   % w ; < 4 a s 2 u X r # $ t = 1 d : h 7 l 8 z 9 c ",
"x 6 k j g 5 p , f * q o 0 + e & . y - > 3 i @ O   % w ; < 4 a s 2 u X r # $ t = 1 d : h 7 l 8 z 9 c ",
"x 6 k j g 5 p , f * q o 0 + e & . y - > 3 i @ O   % w ; < 4 a s 2 u X r # $ t = 1 d : h 7 l 8 z 9 c ",
"x 6 k j g 5 p , f * q o 0 + e & . y - > 3 i @ O   % w ; < 4 a s 2 u X r # $ t = 1 d : h 7 l 8 z 9 c ",
"x 6 k j g 5 p , f * q o 0 + e & . y - > 3 i @ O   % w ; < 4 a s 2 u X r # $ t = 1 d : h 7 l 8 z 9 c ",
"x 6 k j g 5 p , f * q o 0 + e & . y - > 3 i @ O   % w ; < 4 a s 2 u X r # $ t = 1 d : h 7 l 8 z 9 c ",
"x 6 k j g 5 p , f * q o 0 + e & . y - > 3 i @ O   % w ; < 4 a s 2 u X r # $ t = 1 d : h 7 l 8 z 9 c ",
"x 6 k j g 5 p , f * q o 0 + e & . y - > 3 i @ O   % w ; < 4 a s 2 u X r # $ t = 1 d : h 7 l 8 z 9 c ",
"x 6 k j g 5 p , f * q o 0 + e & . y - > 3 i @ O   % w ; < 4 a s 2 u X r # $ t = 1 d : h 7 l 8 z 9 c ",
"x 6 k j g 5 p , f * q o 0 + e & . y - > 3 i @ O   % w ; < 4 a s 2 u X r # $ t = 1 d : h 7 l 8 z 9 c ",
"x 6 k j g 5 p , f * q o 0 + e & . y - > 3 i @ O   % w ; < 4 a s 2 u X r # $ t = 1 d : h 7 l 8 z 9 c ",
"x 6 k j g 5 p , f * q o 0 + e & . y - > 3 i @ O   % w ; < 4 a s 2 u X r # $ t = 1 d : h 7 l 8 z 9 c ",
"x 6 k j g 5 p , f * q o 0 + e & . y - > 3 i @ O   % w ; < 4 a s 2 u X r # $ t = 1 d : h 7 l 8 z 9 c ",
"x 6 k j g 5 p , f * q o 0 + e & . y - > 3 i @ O   % w ; < 4 a s 2 u X r # $ t = 1 d : h 7 l 8 z 9 c ",
"x 6 k j g 5 p , f * q o 0 + e & . y - > 3 i @ O   % w ; < 4 a s 2 u X r # $ t = 1 d : h 7 l 8 z 9 c ",
"x 6 k j g 5 p , f * q o 0 + e & . y - > 3 i @ O   % w ; < 4 a s 2 u X r # $ t = 1 d : h 7 l 8 z 9 c ",
"x 6 k j g 5 p , f * q o 0 + e & . y - > 3 i @ O   % w ; < 4 a s 2 u X r # $ t = 1 d : h 7 l 8 z 9 c ",
"x 6 k j g 5 p , f * q o 0 + e & . y - > 3 i @ O   % w ; < 4 a s 2 u X r # $ t = 1 d : h 7 l 8 z 9 c ",
"x 6 k j g 5 p , f * q o 0 + e & . y - > 3 i @ O   % w ; < 4 a s 2 u X r # $ t = 1 d : h 7 l 8 z 9 c ",
"x 6 k j g 5 p , f * q o 0 + e & . y - > 3 i @ O   % w ; < 4 a s 2 u X r # $ t = 1 d : h 7 l 8 z 9 c ",
"x 6 k j g 5 p , f * q o 0 + e & . y - > 3 i @ O   % w ; < 4 a s 2 u X r # $ t = 1 d : h 7 l 8 z 9 c ",
"x 6 k j g 5 p , f * q o 0 + e & . y - > 3 i @ O   % w ; < 4 a s 2 u X r # $ t = 1 d : h 7 l 8 z 9 c ",
"x 6 k j g 5 p , f * q o 0 + e & . y - > 3 i @ O   % w ; < 4 a s 2 u X r # $ t = 1 d : h 7 l 8 z 9 c ",
"x 6 k j g 5 p , f * q o 0 + e & . y - > 3 i @ O   % w ; < 4 a s 2 u X r # $ t = 1 d : h 7 l 8 z 9 c ",
"x 6 k j g 5 p , f * q o 0 + e & . y - > 3 i @ O   % w ; < 4 a s 2 u X r # $ t = 1 d : h 7 l 8 z 9 c ",
"x 6 k j g 5 p , f * q o 0 + e & . y - > 3 i @ O   % w ; < 4 a s 2 u X r # $ t = 1 d : h 7 l 8 z 9 c ",
"x 6 k j g 5 p , f * q o 0 + e & . y - > 3 i @ O   % w ; < 4 a s 2 u X r # $ t = 1 d : h 7 l 8 z 9 c ",
"x 6 k j g 5 p , f * q o 0 + e & . y - > 3 i @ O   % w ; < 4 a s 2 u X r # $ t = 1 d : h 7 l 8 z 9 c ",
"x 6 k j g 5 p , f * q o 0 + e & . y - > 3 i @ O   % w ; < 4 a s 2 u X r # $ t = 1 d : h 7 l 8 z 9 c ",
"x 6 k j g 5 p , f * q o 0 + e & . y - > 3 i @ O   % w ; < 4 a s 2 u X r # $ t = 1 d : h 7 l 8 z 9 c ",
"x 6 k j g 5 p , f * q o 0 + e & . y - > 3 i @ O   % w ; < 4 a s 2 u X r # $ t = 1 d : h 7 l 8 z 9 c ",
"x 6 k j g 5 p , f * q o 0 + e & . y - > 3 i @ O   % w ; < 4 a s 2 u X r # $ t = 1 d : h 7 l 8 z 9 c ",
"x 6 k j g 5 p , f * q o 0 + e & . y - > 3 i @ O   % w ; < 4 a s 2 u X r # $ t = 1 d : h 7 l 8 z 9 c ",
"x 6 k j g 5 p , f * q o 0 + e & . y - > 3 i @ O   % w ; < 4 a s 2 u X r # $ t = 1 d : h 7 l 8 z 9 c ",
"x 6 k j g 5 p , f * q o 0 + e & . y - > 3 i @ O   % w ; < 4 a s 2 u X r # $ t = 1 d : h 7 l 8 z 9 c ",
"x 6 k j g 5 p , f * q o 0 + e & . y - > 3 i @ O   % w ; < 4 a s 2 u X r # $ t = 1 d : h 7 l 8 z 9 c ",
"v 6 k j g 5 p , f * q o 0 + e & . y - > 3 i @ O   % w ; < 4 a s 2 u X r # $ t = 1 d : h 7 l 8 z 9 n ",
"v 6 k j g 5 p , f * q o 0 + e & . y - > 3 i @ O   % w ; < 4 a s 2 u X r # $ t = 1 d : h 7 l 8 z 9 M ",
"b 6 7.3.,.5 ;., [ * I o &.+ ' & . } - > 3 V @ O   % ..; < 4 A ^ 2 G X r # $ $.= 1 o.: 2.7 q.8 u.9 m ",
"8.9.4.5.1.<.+.Z P Y /  .=.H E ` O.C L ~ | %.F R _ X.:.K Q { #.D U T ) *.-.J W ] @.S >.6.0.w.e.t.y.r."
};
