/* XPM */
static char *_970c9f7156b49fb94fd5c5f6b93bc14V6jS8KjfbzTNMLRS[] = {
/* columns rows colors chars-per-pixel */
"50 50 256 2 ",
"   c black",
".  c #FFADF5",
"X  c #FFF3B1",
"o  c #FFB0F2",
"O  c #FFB2F0",
"+  c #FFAAF8",
"@  c #FFF4B0",
"#  c #FFEFB4",
"$  c #FFF1B3",
"%  c #FFAFF3",
"&  c #FFACF7",
"*  c #FFF6AE",
"=  c #FFB3EF",
"-  c #FFB5EE",
";  c #FFEEB6",
":  c #FFECB7",
">  c #FFB6EC",
",  c #FFEBB9",
"<  c #5395A3",
"1  c #FFE9BA",
"2  c #FFB8EA",
"3  c #FFE6BD",
"4  c #FFE8BC",
"5  c #FFB9E9",
"6  c #FFE5BF",
"7  c #56CDA2",
"8  c #FFE2C2",
"9  c #FFE3C0",
"0  c #FFBBE8",
"q  c #FFDFC5",
"w  c #FFC0E3",
"e  c #FFE0C3",
"r  c #FFDDC7",
"t  c #56CEA4",
"y  c #54CCA2",
"u  c #FFBDE6",
"i  c #FFD8CB",
"p  c #FFC6DD",
"a  c #FFCDD5",
"s  c #FFCAD9",
"d  c #FFDAC9",
"f  c #FFD4D0",
"g  c #FFD7CC",
"h  c #FFBEE5",
"j  c #FFCFD5",
"k  c #FFCCD7",
"l  c #FFC9DB",
"z  c #5496A4",
"x  c #FFD1D2",
"c  c #FFD2D1",
"v  c #FFDBC8",
"b  c #FFC7DB",
"n  c #FFD6CE",
"m  c #FFC3E0",
"M  c #FFC5DF",
"N  c #4CB58F",
"B  c #52C59C",
"V  c #100D0C",
"C  c #55CBA1",
"Z  c #FFC8E2",
"A  c #5094A1",
"S  c #53C19C",
"D  c #4E8E9B",
"F  c #050405",
"G  c #181314",
"H  c #54C9A0",
"J  c #50919F",
"K  c #271F22",
"L  c #FFDDC9",
"P  c #2F2627",
"I  c #DCDCBC",
"U  c #FFD7D3",
"Y  c #498390",
"T  c #9CD4B1",
"R  c #51C39B",
"E  c #5FCDA6",
"W  c #EE9E89",
"Q  c #FFBCED",
"!  c #FEBAE2",
"~  c #FFBAEA",
"^  c #F9B1B4",
"/  c #EAB3CD",
"(  c #9D8C76",
")  c #EBDAC4",
"_  c #ACC7C9",
"`  c #4DB892",
"'  c #FFC2E5",
"]  c #29514E",
"[  c #182C2B",
"{  c #4FBE96",
"}  c #FEECBC",
"|  c #64CFA8",
" . c #D7E6E8",
".. c #5B99A6",
"X. c #437984",
"o. c #315A5E",
"O. c #4D8B95",
"+. c #CCC7CD",
"@. c #7CABB3",
"#. c #6AB49C",
"$. c #CAADA0",
"%. c #FFE1C8",
"&. c #FFD9BA",
"*. c #FFB8EB",
"=. c #685C59",
"-. c #B8D2B2",
";. c #8A677A",
":. c #B4B2C2",
">. c #060908",
",. c #AACFB2",
"<. c #6FC8A9",
"1. c #F7CDCF",
"2. c #61C3A0",
"3. c #9BC1C9",
"4. c #10221F",
"5. c #80CBB2",
"6. c #9FAFB8",
"7. c #314146",
"8. c #52ABA0",
"9. c #FBA88D",
"0. c #B07867",
"q. c #6CA4AF",
"w. c #C8BDC9",
"e. c #8EB7AB",
"r. c #403733",
"t. c #D9A3C1",
"y. c #B1839F",
"u. c #F8D2B9",
"i. c #987487",
"p. c #FFBEEA",
"a. c #36636C",
"s. c #40737E",
"d. c #F6DFC2",
"f. c #7CD0A9",
"g. c #F2B8D3",
"h. c #56B18E",
"j. c #F5C1A2",
"k. c #C69EAE",
"l. c #E7BAD7",
"z. c #D5C2D4",
"x. c #6DCFA7",
"c. c #D9D2B8",
"v. c #1B3533",
"b. c #3B6D75",
"n. c #3D3035",
"m. c #E0AFC4",
"M. c #0B1416",
"N. c #CEB6C9",
"B. c #DB9792",
"V. c #F2E3BF",
"C. c #9FC5B8",
"Z. c #F9C3DB",
"A. c #BFC0CB",
"S. c #56B7A1",
"D. c #66BB98",
"F. c #30775E",
"G. c #B5A18E",
"H. c #DCA893",
"J. c #3F8B79",
"K. c #97CBB6",
"L. c #356F59",
"P. c #46AB87",
"I. c #86D5B6",
"U. c #A2DECB",
"Y. c #E5C2D8",
"T. c #5C8E9B",
"R. c #62C7A4",
"E. c #669CA9",
"W. c #41806A",
"Q. c #B4BBC3",
"!. c #B2DBD2",
"~. c #E3EDEF",
"^. c #509F9F",
"/. c #F2C5DA",
"(. c #54A08A",
"). c #A86F5D",
"_. c #837266",
"`. c #B89B93",
"'. c #A67E91",
"]. c #E8AAD2",
"[. c #FFDBCD",
"{. c #FFD2D6",
"}. c #FFDEC3",
"|. c #BB8DA6",
" X c #FCCBD2",
".X c #504242",
"XX c #FEB3C6",
"oX c #FFBACD",
"OX c #CA8A73",
"+X c #F9B6DE",
"@X c #C494AF",
"#X c #F8D7C0",
"$X c #FFE4C0",
"%X c #785C61",
"&X c #C6D9B7",
"*X c #EAAC91",
"=X c #409B7A",
"-X c #EDCDC3",
";X c #80A3B1",
":X c #7BC29C",
">X c #FCE5BC",
",X c #D0BA9C",
"<X c #FFE4C5",
"1X c #B58873",
"2X c #6BBEAC",
"3X c #0E191B",
"4X c #F1BCE3",
"5X c #82B2B8",
"6X c #634345",
"7X c #77858C",
"8X c #F1CFCC",
"9X c #BE7D68",
"0X c #C5DADF",
"qX c #BAE2D6",
"wX c #C4AABD",
"eX c #568878",
"rX c #5C797D",
"tX c #FABBC0",
"yX c #90C1B1",
"uX c #E6BFBB",
"iX c #796A5D",
"pX c #E5C8B1",
"aX c #A38686",
"sX c #E7C7B5",
"dX c #DAB2B4",
"fX c #F1C0CD",
"gX c #C8C6B1",
"hX c #917E70",
"jX c #48393D",
"kX c #9D9690",
"lX c #63828C",
"zX c #B69199",
"xX c #84B399",
"cX c #7F7D78",
"vX c #29634E",
"bX c #FBDBC2",
"nX c #285D4C",
"mX c #669983",
"MX c #82B793",
"NX c #5AA789",
"BX c #A6B692",
"VX c #7792A1",
"CX c #8CB7C1",
"ZX c #B9C8C5",
"AX c #BD8F82",
"SX c #397A6D",
"DX c #B6C9C2",
"FX c #A2A1AA",
"GX c #5295A2",
"HX c #A78787",
"JX c #F2AB98",
"KX c #F1AC96",
"LX c #89594A",
"PX c #0600F5",
"IX c #00ADB1",
"UX c #FFF3F2",
/* pixels */
"* @ X $ # ; : , 1 4 3 6 9 8 e }.r v d i g n f c x 1.:.;X;X:.Z.p M m w w h u 0 5 2 > - = O o % . & + ",
"* @ X $ # ; : , 1 4 3 6 9 &.}.q r v d i g n f c 1.6.z A A z 6.p M m w w h u 0 5 2 > - = O o % . & + ",
"* @ X $ # ; : , 1 4 3 6 &.*Xu.}.r v d i g n f c w...< < < z E.l.M m w w h ! ! 5 2 > - = O o % . & + ",
"* @ X $ # ; : , 1 4 3 6 j.9X1Xu.r v d i g n 8X:.T.D A z < Y O.N.M m w w oX^ XX! *.> - = O o % . & + ",
"* @ X $ # ; : , 1 4 3 6 j.0.OX&.r v d i g n -XQ.7X7.=.o.rX7.7.m.M m w w ^ W B.+X*.> - = O o % . & + ",
"* @ X $ # ; : , 1 4 3 6 &.9.H.bXr v d i g n f U HXLX9X6X0.0.%Xg.M m w w ^ OXB.5 *.> - = O o % . & + ",
"* @ X $ # ; : , 1 4 3 6 9 j.*X#Xr v d i g n f 8XH.).W W 9.W B.Z.M m oX^ W 9.XX~ 2 > - = O o % . & + ",
"* @ X $ # ; : , 1 4 3 6 I :X#.-.r v d i g 8X6.E.G.).).9.KXW tXp M m w ^ G.H.g.~ 2 > - = O o % . & + ",
"* @ X $ # ; : , 1 4 3 >XT B { R.I v d i n 6.GXA z rXP 0.JXtXb p M m w _ { h.N.~ 2 > - = O o % . & + ",
"* @ X $ # ; : , 1 4 3 V.x.y 7 y -.L d ) ,.S.S.8.^.< o.X.@.DX+./.M m Y.<.7 C A.5 2 > - = O o % . & + ",
"* @ X $ # ; : , 1 4 3 V.f.y H C T ) ,.x.y 7 7 7 S O.D D ^.C E 5.+.m _ y y E z.5 2 > - = O o % . & + ",
"* @ X $ # ; : , 1 4 3 6 ,.8.8.H 2.<.` R 7 y y y C SXX.D J.C B B E C.<.7 R 5X4X5 2 > - = O o % . & + ",
"* @ X $ # ; : , 1 4 3 3 c...z S N P.R ` 7 y y y 7 8.O.q.q.2.B N C N H 7 S.:.0 5 2 > - = O o % . & + ",
"* @ X $ # ; : , 1 4 3 6 d.@.^.S B N B N y y y y y 2X0X~.~.U.y N S S y y 2Xl.0 5 2 > - = O o % . & + ",
"* @ X $ # ; : , 1 4 3 6 9 ,.H y y 7 B N y y y y C U.0X@.5X!.| R N y y y C.u 0 5 2 > - = O o % . & + ",
"* @ X $ # ; : , 1 4 3 6 9 I | y y 7 S { 7 H y y 7 U.q.A A @.I.y N B y E z.0 0 5 2 > - = O o % . & + ",
"* @ X $ # ; : , 1 4 3 6 9 8 T 7 y y N R B ` y y | !.E.< A q.qXE { D.5.A.h u 0 5 2 > - = O o % . & + ",
"* @ X $ # ; : , 1 4 3 6 9 8 d.&XT T D.H N R y y 2. .@.J J CX .R.C C.m w h u 0 5 2 > - = O o % . & + ",
"* @ X $ # ; : , 1 4 3 6 9 8 e q r v -.{ ` 7 y C J._  .3.3.~.3.(.y 5.Z.w h u 0 5 2 > - = O o % . & + ",
"* @ X $ # ; : , 1 4 3 6 9 8 e }.r L c.h.H y t P.b..._  . .3.< o.N | Y.w h u 0 5 2 > - = O o % . & + ",
"* @ X $ # ; : , 1 4 3 6 9 8 e }.r L gXS 7 y H nXb.z < ....< J [ L.E z.w h u 0 5 2 > - = O o % . & + ",
"* @ X $ # ; : , 1 4 3 6 9 8 e }.r ) f.C y t J.4.Y z < < < < D 4.4.N +.w h u 0 5 2 > - = O o % . & + ",
"* @ X $ # ; : , 1 4 3 6 9 8 e }.r T y y 7 ` [ 7.< < < < < z O.3X  L.+.w h u 0 5 2 > - = O o % . & + ",
"* @ X $ # ; : , 1 4 3 6 9 8 e q I E y y y vX3XX.z < < < < z Y M.>.v.wX' h u 0 5 2 > - = O o % . & + ",
"* @ X $ # ; : , 1 4 3 6 9 8 e d.I.y y t =Xv.s.< < < < < < < A ] 4.] k.' h u 0 5 2 > - = O o % . & + ",
"* @ X $ # ; : , 1 4 3 6 9 8 e ) x.y 7 S ] s.z < < < < < J T.#.{ F.eXl.w h u 0 5 2 > - = O o % . & + ",
"* @ X $ # ; : , 1 4 3 6 9 8 e }.I f.7 W.a.z < < < < J Y Y T.Q.5.R e.w w h u 0 5 2 > - = O o % . & + ",
"* @ X $ # ; : , 1 4 3 6 9 8 e }.r ) xXo.D < < < < < J D < A VXN.K.+.w w h u 0 5 2 > - = O o % . & + ",
"* @ X $ # ; : , 1 4 3 6 9 8 e }.r L kXX.A < z < < z z z D b.[ n.@Xm ' w h u 0 5 2 > - = O o % . & + ",
"* @ X $ # ; : , 1 4 3 6 9 8 e }.r v cXo.s.Y O.J J D Y X.] 3X    G ;.g.' h u 0 5 2 > - = O o % . & + ",
"* @ X $ # ; : , 1 4 3 6 9 8 e }.r -Xn.  3Xv.] a.a.lX7X[           F .Xt.w u 0 5 2 > - = O o % . & + ",
"* @ X $ # ; : , 1 4 3 6 9 8 e }.%.$.V     F   F G k. XzXjXF           K '.! 0 5 2 > - = O o % . & + ",
"* @ X $ # ; : , 1 4 3 6 9 8 e }.q _.            =. Xa j fX'.P           V '.0 5 2 > - = O o % . & + ",
"* @ X $ # ; : , 1 4 3 6 9 8 e q u.r.          K dX{.a k s s / i.P         K ].0 2 > - = O o % . & + ",
"* @ X $ # ; : , 1 4 3 6 9 8 e %.$.V         >.aX{.j a k s l l Z / %XF     F y.Q 2 > - = O o % . & + ",
"* @ X $ # ; : , 1 4 3 6 9 8 e %._.          =.1.x j a k s l b p Z / K     F y.Q 2 > - = O o % . & + ",
"* @ X $ # ; : , 1 4 3 6 9 8 8 pXP         r.uXf x j a k s l b p M / P     V @XQ 2 > - = O o % . & + ",
"* @ X $ # ; : , 1 4 3 6 9 8 }.iX        K $.U c x j a k s l b p M m.K     P ].~ 2 > - = O o % . & + ",
"* @ X $ # ; : , 1 4 3 6 $X8 ( V       G `.U f c x j a k s l b p M t.G     6X! ~ 2 > - = O o % . & + ",
"* @ X $ # ; : , 1 4 3 6 9 ( V       K `.i n f c x j a k s l b p Z k.V     ;.p.5 2 > - = O o % . & + ",
"* @ X $ # ; : , 1 4 3 $X( V       r.$.[.g n f c x j a k s l b p Z |.>.  F |.p.5 2 > - = O o % . & + ",
"* @ X $ # ; : , 1 4 3 ( V     F =.sX[.i g n f c x j a k s l b p Z y.    G t.p.5 2 > - = O o % . & + ",
"* @ X $ # ; : , 1 >X( V     G hX#XL d i g n f c x j a k s l b p Z i.    n.+X0 5 2 > - = O o % . & + ",
"* @ X $ # ; : , } ,XG     P G.q r v d i g n f c x j a k s l b p Z ;.V G ;.h 0 5 2 > - = O o % . & + ",
"* @ X $ # ; : , } BX[ >..X,X<Xq r v d i g n f c x j a k s l b p M m.1XAX/ u 0 5 2 > - = O o % . & + ",
"* @ X $ # ; : , } MXF.L.c.<Xe }.r v d i g n f c x j a k s l b p /.K.D.W.FXu 0 5 2 > - = O o % . & + ",
"* @ X $ # ; : , } C.F.mXV.8 e }.r v d i g n f c x j a k s l b p ZX7 I.(.W.wX0 5 2 > - = O o % . & + ",
"* @ X $ # ; : , 1 K.=XNXI 8 e }.r v d i g n f c x j a k s l b p e.R.qX!.(.eXA.4X*.> - = O o % . & + ",
"* @ X $ # ; : , 1 :XB C &X8 e }.r v d i g n f c x j a k s l b p w.e.yXyX#.P.B <.w.> - = O o % . & + ",
"* @ X $ # ; : , 1 -.h.2.I 8 e }.r v d i g n f c x j a k s l b p M M /.Y.w.e.#.#.Q.> - = O o % . & + "
};
