/* XPM */
static char *_d6ab131733e4ad5ce7002f0e5e3632aAyA3nizGEOO53vCj[] = {
/* columns rows colors chars-per-pixel */
"50 50 256 2 ",
"   c #F9D7D7",
".  c #F9D5D5",
"X  c #FBD8D4",
"o  c #FBD9D5",
"O  c #FADEDE",
"+  c #FADDDD",
"@  c #FBDAD6",
"#  c #F9D6D6",
"$  c #FBDBD7",
"%  c #FCDEDB",
"&  c #FADADA",
"*  c #FBDCDA",
"=  c #FBDFDF",
"-  c #FBD8D3",
";  c #FADBDA",
":  c #FCDFDC",
">  c #FBE2E0",
",  c #FADADB",
"<  c #FBDCD9",
"1  c #FCE0DE",
"2  c #FBDEDD",
"3  c #FADBDB",
"4  c #FADCDC",
"5  c #FCE0DD",
"6  c #FCDFDD",
"7  c #FCDEDA",
"8  c #FBE3E2",
"9  c #FBE1E1",
"0  c #FADCDB",
"q  c #FBDDD9",
"w  c #FAD7D6",
"e  c #FBDDDA",
"r  c #FAD9D8",
"t  c #FBDDDC",
"y  c #F9D8D7",
"u  c #FCDFDB",
"i  c #FBDFDE",
"p  c #FBD9D4",
"a  c #FBE2E1",
"s  c #FBDBD8",
"d  c #F9D6D7",
"f  c #FAD8D7",
"g  c #FBDDDB",
"h  c #FBE1DF",
"j  c #FBE0DF",
"k  c #FAE0E0",
"l  c #FADEDD",
"z  c #FBE2E2",
"x  c #F9D8D8",
"c  c #FCE1D7",
"v  c #FADCDA",
"b  c #FCE4E5",
"n  c #FCE1DE",
"m  c #FBDAD7",
"M  c #FCE2DF",
"N  c #FBD7D3",
"B  c #FCE1DD",
"V  c #FBE0DE",
"C  c #FCE7E4",
"Z  c #FBD7D2",
"A  c #FADBD9",
"S  c #F9D9DA",
"D  c #FBE1E3",
"F  c #FBE7E8",
"G  c #FBDAD5",
"H  c #FBD6D2",
"J  c #FCE3E2",
"K  c #FCE4E2",
"L  c #F9D6D5",
"P  c #FAD9D9",
"I  c #F9D8D9",
"U  c #FBDFE0",
"Y  c #FDEAE7",
"T  c #FFB5EF",
"R  c #FFF3B1",
"E  c #FFEEB7",
"W  c #FBD9D6",
"Q  c #F9D7D8",
"!  c #FDE5E0",
"~  c #FADCDD",
"^  c #FBE6E6",
"/  c #FCCFCF",
"(  c #FFF5AF",
")  c #FBE0E2",
"_  c #FCBDE1",
"`  c #FCC0DF",
"'  c #F9D4D5",
"]  c #FDE9E4",
"[  c #FFC3E1",
"{  c #FFF6AE",
"}  c #FFCFD5",
"|  c #FCCAD4",
" . c #FBD4C8",
".. c #FFDDC7",
"X. c #FEE9BA",
"o. c #FFAFF6",
"O. c #FADDDE",
"+. c #F6ABEA",
"@. c #FCE6E4",
"#. c #FCE3E0",
"$. c #FADEDC",
"%. c #ECC2D4",
"&. c #FFB8ED",
"*. c #FFC1E3",
"=. c #F8B3E4",
"-. c #EFD1CB",
";. c #FFC6DE",
":. c #EEBACD",
">. c #FCDFBF",
",. c #FFE3C1",
"<. c #FFDFC5",
"1. c #EBC8BC",
"2. c #FFF0B4",
"3. c #FFE5BF",
"4. c #FFACF8",
"5. c #FFAAF8",
"6. c #E6A1DB",
"7. c #FADBDC",
"8. c #FFB0F2",
"9. c #FFBEE6",
"0. c #FDBAE4",
"q. c #FFBCE8",
"w. c #FCC2DB",
"e. c #EEB7E3",
"r. c #FBE3E6",
"t. c #F0B2EA",
"y. c #FCCDD0",
"u. c #FCE8E9",
"i. c #FBE0E4",
"p. c #FFC8DB",
"a. c #FFCBDA",
"s. c #EFCBBE",
"d. c #FFE2C2",
"f. c #EBCBB8",
"g. c #FFD9CA",
"h. c #F8EBAD",
"j. c #EBC4BF",
"k. c #FFE8BD",
"l. c #E8D6AA",
"z. c #ECDDA9",
"x. c #FBD5D1",
"c. c #FAD6D3",
"v. c #FBE0DC",
"b. c #FEACF4",
"n. c #FBE3E4",
"m. c #FBA8F4",
"M. c #ECA9DB",
"N. c #F3DAC8",
"B. c #E5AFCB",
"V. c #FFB2EF",
"C. c #E6BECF",
"Z. c #F9B7E1",
"A. c #EBD9BD",
"S. c #F0B1DA",
"D. c #FDB1EE",
"F. c #FADCBE",
"G. c #E8B7C8",
"H. c #ECC0C5",
"J. c #EBBCC7",
"K. c #FCC6D8",
"L. c #FBC8D5",
"P. c #FFCCD7",
"I. c #FCE4E9",
"U. c #E4D8B4",
"Y. c #FFD4D0",
"T. c #FCDCC2",
"R. c #FFD6CE",
"E. c #FDD3CC",
"W. c #EFD5B5",
"Q. c #FEDBC8",
"!. c #FCE3BB",
"~. c #FDEBB5",
"^. c #F9EFAC",
"/. c #F8E6B3",
"(. c #F2E0AF",
"). c #FBECB2",
"_. c #F8A8F0",
"`. c #FBDBD9",
"'. c #E5A3D5",
"]. c #F7AEE8",
"[. c #E6AEDE",
"{. c #F4AFE2",
"}. c #EBBBDA",
"|. c #FFBAEA",
" X c #E7A7D5",
".X c #EDB2D4",
"XX c #E7C7C7",
"oX c #F7BCDB",
"OX c #EAC7CC",
"+X c #EAB8DB",
"@X c #FFD1D3",
"#X c #FDE4DE",
"$X c #FBD1CC",
"%X c #F2C5CA",
"&X c #F0B8D3",
"*X c #EEC8D3",
"=X c #E6D2BB",
"-X c #F9CAD0",
";X c #F0ADDD",
":X c #FBE2E5",
">X c #EDE3B7",
",X c #FBDEE3",
"<X c #FFD3D2",
"1X c #F9D8C2",
"2X c #E9DCB6",
"3X c #E9CFC3",
"4X c #FFD7CD",
"5X c #FCDAC5",
"6X c #EDD1B7",
"7X c #E6D6B7",
"8X c #DFCEA4",
"9X c #F9E3B7",
"0X c #FDE6B9",
"qX c #F0D9B3",
"wX c #EDDAAD",
"eX c #E9DFA2",
"rX c #F0A2E9",
"tX c #F4EBB5",
"yX c #EA9FE2",
"uX c #FADFDA",
"iX c #E4B9D1",
"pX c #F5A6ED",
"aX c #FAEFBC",
"sX c #EBB1E3",
"dX c #ECAED7",
"fX c #FCB8E4",
"gX c #F3BFD1",
"hX c #ECD5C2",
"jX c #EDCDCC",
"kX c #EEE5B5",
"lX c #EEC1D8",
"zX c #E5B4D7",
"xX c #F1BFDD",
"cX c #F3D4C5",
"vX c #F9C2D8",
"bX c #FCADF0",
"nX c #F4BBE5",
"mX c #E3BCBC",
"MX c #F9E0B9",
"NX c #EEC9CF",
"BX c #E5CBBF",
"VX c #E5D9A1",
"CX c #EFDAB0",
"ZX c #EFA3E5",
"AX c #D393CA",
"SX c #DD9BD2",
"DX c #F3B8D9",
"FX c #F6BED7",
"GX c #FCE8EF",
"HX c #F7EBBC",
"JX c #E6CDAF",
"KX c #DFD2B0",
"LX c #E0BFB4",
"PX c #FED5CE",
"IX c #F9D5D4",
"UX c #F9D8D5",
/* pixels */
"^.^.eX).).~.~.X.X.k.3.3.d.W.T.<.Q.Q.g.g.4XPXY.<X%X-X} P.a.a.p.;.;.[ [ DX_ 9.q.|.|.&.&.T T +.6.o.4.4.",
"eXeXVXz.z.z.z.wXl.CXqXW.W.JX6X6Xf.f.1.LXj.j.j.j.mXH.H.J.J.:.G.:.&X&X&XB..XS.dXdXM.'.'.'.6.SXAXZXrXrX",
"{ R R 2.2.E ~./.CXk.3.3.d.d.<.<...Q.g.1. .E.$X/ / y.| | L.K.G.vXw.` ` _ 0.fXZ.=.=. X{.].+.+.+._._.m.",
"{ ( R 2.2.E E /.wXX.k.3.,.d.<.<.....g.1.R.R.Y.<X@X} } P.a.p.:.;.[ [ *.*.9.9.q.|.&.{.T T V.8.o.b.4.5.",
"^.h.h.h.h././.(.l.9XMXMXF.F.F.T.5X5X .1. .E.$X/ / y.| | L.K.:.w.w.` ` _ _ 0.0.fX=.;XV.V.D.8.b.b.5.5.",
"kX>XU.kX>X2XU.2X7XA.A.A.A.=XhXN.N.N.cX3X-.-.jXjXXXOXOXOX*X*XC.%.%.%.C.iXiX}.}.+X+XzXe.e.e.e.[.[.sXt.",
"] ] #X] ] #X! Y ! #X] ! #X! @.#.] K #.Y #.u M @.$.v.K 5 6 K 1 i @.i i ^ h j b b = z b j U ^ + ) n.U ",
": e m % % s s h $ @ v.< m % e $ v.$ @ V % < e V s s v.< m i < < v.s 7 #.< $ % % @ < : $ m v.$ q : $ ",
". d 7.  Q U & # 3 & . , 4 # P O.' I 4 d x ) x . ~ Q . + S # 3 3 ' 3 3   & U   d + # # =   d O I . 9 ",
"2 2 * g V : g h e % h i : 2 2 g i g 2 a i % % V * % h i e i g e i * m j 2 2 i 2 % 2 h V * i % g 2 i ",
"q m c.$ q X o : X o 5 $ @ q s X 7 X c.: $ o $ % X m v.m @ % @ o e N o M o X < < X < : @ @ : X @ < N ",
"# . P # # + P # 4 & # 3 +   P O # d & . # = Q # O x # + 3 # 3 4 . I & # x O     O d   = P   + & ' = ",
"8 h i h 8 a V h > h > h h h 8 8 8 V > @.8 > V > > j a h V a 8 8 8 i t K > h h h 8 j h > V a 8 8 h a ",
"n 7 - 5 B @ $ M G $ M @ X 7 % @ M @ - K u @ q n @ q #.G G 5 q < M G $ C < G u u G 7 B X o B $ q 5 X ",
"O O h = = z = O a h i k a 4 O z O = k + O z + ~ z O + 9 = & = k 4 k z k = z O O 8 O O 8 O 4 z k l @.",
"y L f IXIX; f y ; r r & ; L   & y w ; y L v f r v f & v r   f m f f L . w ; y f 0   r +   L r r   g ",
"7 @ H o @ Z Z : X - 5 @ N q $ H % H H e o Z o % - p v.o - % p - % H N : N H $ < - @ u X - u H G < x.",
"r   ; L # 4 y   0 ; x 3 0   & + x y ; IX  + # # + x y + &   ; 4   & 0   x 4 #   l x r l y x + ;   i ",
"3 r 0 & & l ; & + 0 3 + l ; + i ; & i + ; 2 A ; $.; + 2 0 + $.2 ; ; & & ; l & & l ; 0 i ; 0 i + P j ",
"% $ X $ < - o 5 - - 5 o Z e q - u X X : $ - $ u N p v.- N : $ p % - o n o - q < N $ u Z - B p $ q - ",
"    0 r x 0 r   ; P   P 3   ; +   r 0   y +   # 4   # 3 &   0 3 # ; + & S 0     4     4 y S + & # k ",
"O + k + + z O O = i i k 9 l = z l l 8 k i 8 i i h i k a j i h a i = l + i z l + h l i z i O a k + K ",
"B < Z 7 7 o o n o p B $ o 7 7 o n p - M < p $ 5 - o B p p u $ @ 5 Z o #.@ p 7 7 X $ 5 p G B G q u Z ",
"P   m r f g r & & & & ; 0 r r v & w & y y l y r 0 f r 0 & y & ; y r + & r + r r 0 f & + r r ; & f 0 ",
"U = 8 = O b = ~ 9 z O.k z + k ^ O k ^ k 9 ^ = O b z = b 9 = n.b k 8 9 O.k b + + b = O b O O b 9 O.^ ",
"Y @.K C n u M K u B @.5 u @.5 B @.: n Y u q M K q 5 K 7 7 K e B K 7 5 Y 5 u K #.u #.K v.5 @.% K K : ",
"n s X s e e g i < < V e s i < e i < < > % 2 : 2 * * i % `.i * g 2 % V K e e i % < g : * `.i < 2 % : ",
".   x d I ) Q . +   . O S # ~ , ' + 4 d & k   d O.d # = Q d O I . = & d 3 O #   O.. d = d d = d . F ",
"V e : > % e % V < g > : < V e < v.< % @.e < : : s % n % < V s < : s m K e q V % q i h : < V < % 2 u ",
": X x.W W W s e W s i $ m % @ @ e X N V W m * < m < 2 s s % m s `.W < > X W g s W e % s $ % o s m @ ",
"# . # .   =   d = Q # O , d ~ 4 . 3 7.# I =   Q U d   U S   O , . + & # S + # I = # Q U x   = I ' ^ ",
"8 V > @.> h V > h V 8 V i 8 > > 8 v.> Y h v.h > V V > : 2 #.h > #.: 2 C h V > h > h > V i J > 8 h > ",
"#.$ - 5 % $ % n $ 7 #.@ $ n 7 q #.@ $ ] % < n n < v.M $ < M 7 : M $ 5 ] < $ n u $ B 5 @ < M < 5 5 @ ",
"O + 3 & 4 a 4 3 z ~ 3 k + I = = 3 k O & 4 k & , 9 , & 9 3   = + S 9 U 4 O k 7.+ z 7.7.z 3 S 9 ~ 3 u.",
"r L & r c.A f r ; f ; v f f f m r r A A w A m m A r v * f r f m r r c.f w m r r v r A 0 w f r m w i ",
"5 N x.X X N @ 7 p o v.o X u o p 7 H Z v.p - < q o $ : o o : X @ < N @ n - Z q $ X < % p o : Z < $ Z ",
"x # . ' # + . . l x   + r # 4 0 L 3 & '   + ' # O # d O   # + & . O & . S 3 IXy O   x O #   O r . ^ ",
"; r l l A 2 A v t v $.2 v $.2 2 v g i j A g v v g v 2 2 A i 2 g v g m $.v g ; v t 0 + 2 A l i g & a ",
"5 p - @ @ X $ 7 X o : - N v.$ o 7 X p M @ X e q X m % - X v.@ $ q o < #.p - % $ - < 7 Z o B X < s o ",
"      IX  + # . 4   # 4 S   4 ; . 4 3 # x + # . ~ # . +   d + S . O 4   S 3 #   4 # # +   x O   . ^ ",
"O + a a j 8 j j > V a a h j a a j > K 8 h 8 h j h j a 8 j > a > j h i h h a j j > j h 8 j h 8 h i @.",
"M G - q @ X $ u - o 5 X X u @ @ 5 H p K o - q q - @ u X p : p < 7 H < K p - 7 < N q 7 - G 5 X 7 < H ",
"& # L IX  l     0 y y 4 P   & &   & ; # y +     4 #   +   # 3 r . 0 + y r 0 y y g   x l   y 0 r L a ",
"uXuX#.#.K ] > B C #.h @.> V @.@.h ^ u.K ^ u.z z F b n.F n.n.u.I.:XF D U :Xr.O.,XI.,X,Xr.,X,XI.i.,XGX",
"tXtXaXaXHX>X2XKX7X7X7X=X=X=XN.hX3XBXBX3X-.-.-.XXXXNXNXNX*XC.%.%.%.lXC.lXxXxX}.zX+XnXnXe.sX[.t.t.t.t.",
"( R R 2.E ~.~.wX9X0X!.!.>.>.>.T.5X1Xs. . .E.$X/ y.y.| | L.gXK.w.w.` ` _ _ 0.0.;X;XT D.D.D.bXbXb.m.m.",
"{ R R 2.2.E E (.0Xk.k.3.,.d.<.<...5Xs.g.4XR.Y.<X@X} } P.| :.p.;.;.[ *.*.9.9.q.=.{.&.T T V.8.o.o.4.5.",
"( ( R 2.).~./.l.(.9X!.!.>.>.F.1X1XcXs. . .$X$Xy.y.-X-XL.%XG.K.vXFXoXoXoXZ.Z.fXS.{.=.].].].+.+.pX_.m.",
"( R ^.VX(.z.l.8X8Xl.qXqXJXW.6Xf.f.f.1.s.s.1.j.mX%XH.H.J.J.G.gX:.B.B.B..XB.dXS. X XM.M.M.6.6.6.yXyXpX",
"{ R 2.h.2.E E E X.k.3.3.>.d.<.<.....Q.g.4XR.Y./ @X} } P.a.a.p.;.;.[ ` *.9.9.q.|.&.&.T T D.8.o.o.4.5."
};
